<svg width="30" height="31" viewBox="0 0 30 31" fill="none" xmlns="http://www.w3.org/2000/svg">
<path d="M15 21.125C18.1066 21.125 20.625 18.6066 20.625 15.5C20.625 12.3934 18.1066 9.875 15 9.875C11.8934 9.875 9.375 12.3934 9.375 15.5C9.375 18.6066 11.8934 21.125 15 21.125Z" stroke="#8B8DA1" stroke-width="1.5" stroke-linecap="round" stroke-linejoin="round"/>
<path d="M23.1328 9.95702C23.4149 10.3609 23.6619 10.7883 23.8711 11.2344L26.9063 12.9219C27.2852 14.6193 27.2892 16.379 26.918 18.0781L23.8711 19.7656C23.6619 20.2117 23.4149 20.639 23.1328 21.043L23.1914 24.5234C21.9051 25.6956 20.3827 26.5787 18.7266 27.1133L15.7383 25.3203C15.2467 25.3555 14.7533 25.3555 14.2617 25.3203L11.2852 27.1015C9.6238 26.5767 8.09636 25.697 6.8086 24.5234L6.86719 21.0547C6.58743 20.6452 6.34056 20.2141 6.12891 19.7656L3.09375 18.0781C2.71477 16.3807 2.71077 14.621 3.08203 12.9219L6.12891 11.2344C6.33807 10.7883 6.58507 10.3609 6.86719 9.95702L6.8086 6.47655C8.09491 5.3044 9.61733 4.42131 11.2734 3.8867L14.2617 5.67967C14.7533 5.64451 15.2467 5.64451 15.7383 5.67967L18.7148 3.89842C20.3762 4.4233 21.9036 5.30298 23.1914 6.47655L23.1328 9.95702Z" stroke="#8B8DA1" stroke-width="1.5" stroke-linecap="round" stroke-linejoin="round"/>
</svg>
